<svg xmlns="http://www.w3.org/2000/svg" width="131.076" height="105" viewBox="0 0 131.076 105">
  <g id="Group_738" data-name="Group 738" transform="translate(-447 -376)">
    <g id="Group_634" data-name="Group 634" transform="translate(-475 150)">
      <rect id="Rectangle_167" data-name="Rectangle 167" width="131.076" height="105" rx="10" transform="translate(922 226)" fill="#007bff"/>
    </g>
    <path id="bxs-archive" d="M55.088,13.832l.035-.027L47.074,3.073A2.685,2.685,0,0,0,44.927,2h-32.2a2.685,2.685,0,0,0-2.146,1.073L2.537,13.8l.035.027A2.624,2.624,0,0,0,2,15.412v32.2a5.368,5.368,0,0,0,5.366,5.366H50.293a5.368,5.368,0,0,0,5.366-5.366v-32.2A2.624,2.624,0,0,0,55.088,13.832ZM14.073,7.366H43.586l4.024,5.366H10.049ZM42.244,31.512V34.2H15.415V23.464h5.366V28.83h16.1V23.464h5.366Z" transform="translate(483.246 400.89)" fill="#fff"/>
  </g>
</svg>