<svg xmlns="http://www.w3.org/2000/svg" width="20" height="20" viewBox="0 0 20 20">
    <defs>
        <style>
            .cls-1{fill:#8f99a7}
        </style>
    </defs>
    <path id="bxs-help-circle_1_" d="M12 2a10 10 0 1 0 10 10A10.011 10.011 0 0 0 12 2zm1 16h-2v-2h2zm.976-4.885a6.928 6.928 0 0 0-.535.459 1.373 1.373 0 0 0-.441.793v.133h-2v-.167a3.259 3.259 0 0 1 1.026-2.174c.195-.195.437-.393.691-.6.734-.6 1.216-1.029 1.216-1.627a1.933 1.933 0 1 0-3.867 0h-2a3.934 3.934 0 0 1 7.868 0 4.171 4.171 0 0 1-1.958 3.183z" class="cls-1" data-name="bxs-help-circle (1)" transform="translate(-2 -2)"/>
</svg>
